<svg width="1200" height="900" viewBox="0 0 1200 900" fill="none" xmlns="http://www.w3.org/2000/svg">
  <rect width="1200" height="900" rx="32" fill="#0B1530"/>
  <g opacity="0.9">
    <rect x="70" y="70" width="1060" height="760" rx="26" fill="#F8FAFC"/>
    <rect x="110" y="120" width="220" height="24" rx="12" fill="#C7D2FE"/>
    <rect x="110" y="168" width="720" height="18" rx="9" fill="#CBD5E1"/>
    <rect x="110" y="198" width="680" height="18" rx="9" fill="#CBD5E1"/>
    <rect x="110" y="228" width="740" height="18" rx="9" fill="#CBD5E1"/>
    <rect x="110" y="286" width="980" height="2" fill="#E2E8F0"/>
    <rect x="110" y="322" width="200" height="18" rx="9" fill="#A5B4FC"/>
    <rect x="110" y="360" width="880" height="16" rx="8" fill="#CBD5E1"/>
    <rect x="110" y="388" width="900" height="16" rx="8" fill="#CBD5E1"/>
    <rect x="110" y="416" width="760" height="16" rx="8" fill="#CBD5E1"/>
    <rect x="110" y="470" width="220" height="18" rx="9" fill="#A5B4FC"/>
    <rect x="110" y="508" width="900" height="16" rx="8" fill="#CBD5E1"/>
    <rect x="110" y="536" width="860" height="16" rx="8" fill="#CBD5E1"/>
    <rect x="110" y="564" width="740" height="16" rx="8" fill="#CBD5E1"/>
  </g>
  <g>
    <rect x="755" y="332" width="290" height="198" rx="22" fill="#EEF2FF" stroke="#C7D2FE"/>
    <text x="790" y="382" fill="#1E293B" font-family="Arial, Helvetica, sans-serif" font-size="26" font-weight="700">Reviewer Notes</text>
    <rect x="790" y="412" width="210" height="12" rx="6" fill="#FB7185"/>
    <rect x="790" y="442" width="170" height="12" rx="6" fill="#38BDF8"/>
    <rect x="790" y="472" width="190" height="12" rx="6" fill="#34D399"/>
  </g>
  <g>
    <rect x="110" y="650" width="420" height="112" rx="22" fill="#0F172A" opacity="0.95"/>
    <text x="145" y="702" fill="#E2E8F0" font-family="Arial, Helvetica, sans-serif" font-size="22" font-weight="700">Methods • Results • Discussion</text>
    <text x="145" y="735" fill="#94A3B8" font-family="Arial, Helvetica, sans-serif" font-size="18">Editing, review, and revision support</text>
  </g>
</svg>
